<svg width="120" height="120" viewBox="0 0 120 120" fill="none" xmlns="http://www.w3.org/2000/svg">
<path fill-rule="evenodd" clip-rule="evenodd" d="M105.821 107.324H107.09V118.055L99.3313 109.933V117.656H98.0264V106.816L105.821 114.974V107.324ZM69.3531 107.324V113.885C69.3531 115.045 69.0262 115.988 68.3732 116.714C67.6853 117.511 66.7427 117.873 65.5462 117.873C64.4225 117.873 63.4806 117.511 62.7908 116.714C62.1029 115.988 61.7754 115.045 61.7754 113.885V107.324H63.0815V113.45C63.0815 115.589 63.879 116.678 65.5462 116.678C67.2495 116.678 68.0837 115.589 68.0837 113.45V107.324H69.3531ZM73.3405 107.324H79.5392V108.521H77.0745V117.656H75.8419V108.521H73.3405V107.324ZM71.0931 107.324H72.398V117.656H71.0931V107.324ZM59.6737 107.324H61.0875L56.5921 118.236L52.0973 107.324H53.5111L56.5927 114.974L59.6737 107.324ZM95.634 112.508C95.634 113.668 95.2349 114.647 94.402 115.48C93.6406 116.278 92.6619 116.677 91.537 116.677C90.4133 116.677 89.4346 116.278 88.6017 115.48C87.7674 114.646 87.369 113.668 87.369 112.508C87.369 111.348 87.7313 110.369 88.5288 109.571C89.3263 108.738 90.3417 108.339 91.537 108.339C92.7335 108.339 93.7122 108.738 94.4735 109.571C95.2355 110.369 95.634 111.347 95.634 112.508ZM95.3445 108.701C94.2575 107.65 92.9881 107.106 91.5376 107.106C90.0516 107.106 88.7834 107.65 87.6952 108.701C86.6444 109.752 86.1003 111.022 86.1003 112.507C86.1003 114.029 86.645 115.299 87.6952 116.349C88.7467 117.365 90.0155 117.873 91.5376 117.873C93.0249 117.873 94.3291 117.365 95.3445 116.349C96.396 115.299 96.9395 114.029 96.9395 112.507C96.9401 111.022 96.3966 109.752 95.3445 108.701ZM85.8108 107.324V108.521H83.3816V117.656H82.0767V108.521H79.6121V107.324H85.8108ZM25.8512 109.571C26.6126 110.369 26.9749 111.348 26.9749 112.508C26.9749 113.668 26.5759 114.647 25.779 115.48C24.9815 116.278 24.0023 116.677 22.8786 116.677C21.7549 116.677 20.7762 116.278 19.9426 115.48C19.1813 114.646 18.7467 113.668 18.7467 112.508C18.7467 111.348 19.1451 110.369 19.9065 109.571C20.704 108.738 21.6833 108.339 22.8792 108.339C24.0751 108.339 25.0905 108.738 25.8512 109.571ZM26.6855 108.701C25.5979 107.65 24.3291 107.106 22.8792 107.106C21.3925 107.106 20.0883 107.65 19.0729 108.701C17.9853 109.752 17.4419 111.022 17.4419 112.507C17.4419 114.029 17.986 115.299 19.0729 116.349C20.0883 117.365 21.3571 117.873 22.8792 117.873C24.4019 117.873 25.6707 117.365 26.6855 116.349C27.7731 115.299 28.2804 114.029 28.2804 112.507C28.2804 111.022 27.7731 109.752 26.6855 108.701ZM30.6368 113.45C30.6368 115.589 31.4704 116.677 33.1382 116.677C34.7699 116.677 35.6396 115.589 35.6396 113.45V107.324H36.9083V113.885C36.9083 115.045 36.5821 115.987 35.893 116.713C35.2044 117.511 34.2619 117.873 33.1382 117.873C31.9784 117.873 31.0719 117.511 30.3834 116.713C29.6581 115.987 29.3325 115.045 29.3325 113.885V107.324H30.6374L30.6368 113.45ZM14.1785 107.324V116.496H17.3323V117.656H12.9097V107.324H14.1785V107.324ZM45.2455 111.565C46.9855 112.253 47.8197 113.268 47.8197 114.646C47.8197 115.589 47.4935 116.349 46.8411 116.966C46.2248 117.583 45.4634 117.873 44.557 117.873C43.7234 117.873 42.9981 117.619 42.3824 117.039C41.8022 116.496 41.4399 115.807 41.3309 114.974L42.6358 114.683C42.6358 115.263 42.8169 115.734 43.216 116.133C43.615 116.496 44.0496 116.677 44.6298 116.677C45.1739 116.677 45.6084 116.459 46.0075 116.061C46.3337 115.698 46.5149 115.226 46.5149 114.647C46.5149 113.849 45.9347 113.198 44.7387 112.689L44.0135 112.436C42.5636 111.747 41.8022 110.877 41.8022 109.789C41.8022 108.992 42.1284 108.303 42.7086 107.831C43.3249 107.324 44.0135 107.106 44.8477 107.106C46.0436 107.106 46.9139 107.65 47.4935 108.701L46.4788 109.282C46.0797 108.665 45.5362 108.339 44.811 108.339C44.3758 108.339 43.9406 108.447 43.6144 108.701C43.2521 108.991 43.0703 109.355 43.0703 109.788C43.0703 110.405 43.5416 110.877 44.5563 111.239L45.2455 111.565ZM38.6484 107.324H39.9538V117.656H38.6484V107.324ZM89.5535 13.9309L64.5507 72.9429L57.6529 57.8069L70.394 23.1278C71.3521 20.4458 74.7045 19.2001 80.3572 19.2001L82.3681 13.9309H52.6713L50.7551 19.2001C54.9703 19.2001 56.6948 20.4452 56.0237 23.1278L49.7017 40.7546L37.2482 13.9309C34.9492 11.0572 36.0984 9.61972 40.6013 9.61972V3.39361H11.8613V9.62035C17.2265 9.62035 20.5789 11.0578 22.0163 13.9315L43.0921 58.7656L33.2247 85.11C33.0323 88.6542 27.4767 90.3799 16.7471 90.3799L14.7356 95.6485H96.7384L108.138 71.4114H102.199C96.6431 83.9608 90.2246 90.3799 83.0398 90.3799H45.3906L50.9468 75.5308L55.7367 85.11H66.4663L96.7378 13.9321C98.1752 9.62097 101.912 7.32252 107.755 7.32252V1.7644H83.0392V7.32127C90.5116 7.32127 92.6196 9.62035 89.5535 13.9309Z" fill="black"/>
</svg>
