<svg width="120" height="120" viewBox="0 0 120 120" fill="none" xmlns="http://www.w3.org/2000/svg">
<g clip-path="url(#clip0_4638_764)">
<path d="M6.34453 28.4367C9.33516 26.5353 13.0523 25.6851 16.5023 25.4562C17.325 25.3253 18.3117 25.3253 19.132 25.3253C24.3914 25.3253 29.7844 25.3253 35.0438 25.3253C35.0438 27.7173 35.0438 30.1092 35.0438 32.5992C29.5523 32.5992 24.0305 32.5992 18.5391 32.5992C17.2242 32.5992 16.0406 33.0897 15.1852 34.0404C14.2312 35.1219 13.6406 36.5305 13.7391 37.9717C13.7391 45.6053 13.7391 53.1104 13.7391 60.744C13.7391 62.2833 13.9688 63.8577 14.9227 65.0373C15.6469 65.988 16.8305 66.5766 18.0469 66.5766C19.493 66.5766 20.8078 66.5766 22.2211 66.5766C22.2211 63.3648 22.2211 60.1226 22.2211 56.9108C22.2211 55.2407 22.0898 53.5682 22.582 51.8981C23.5359 48.7844 26.2969 46.2944 29.3883 45.5749C30.4734 45.346 31.657 45.4441 32.7422 45.346C42.1781 45.346 51.5156 45.346 60.9844 45.346C61.9383 45.346 62.8922 45.1171 63.7453 44.5261C64.8305 43.8043 65.2898 42.4939 65.4211 41.1835C65.5523 40.102 65.4211 39.0205 65.4211 37.9717C65.4211 37.021 65.5523 36.1684 65.1914 35.22C64.6008 33.5499 62.9227 32.3703 61.1156 32.3703C59.2078 32.3703 57.3023 32.3703 55.493 32.3703C55.493 35.5821 55.493 38.8243 55.493 42.0361C50.9555 42.0361 46.5187 42.0361 41.9812 42.0361C41.9812 36.4324 41.9812 30.7002 41.9812 25.0964C64.6008 25.0964 87.3187 25.0964 109.938 25.0964C109.938 27.4884 109.938 29.8803 109.938 32.3703C105.863 32.3703 101.916 32.3703 97.8398 32.3703C97.8398 45.7384 97.8398 59.2046 97.8398 72.6732C93.4008 72.6732 88.8656 72.6732 84.4266 72.6732C84.4266 59.207 84.4266 45.8389 84.4266 32.3703C82.2891 32.3703 80.1188 32.3703 77.8523 32.3703C77.8523 34.2717 77.8523 36.3015 77.8523 38.2029C77.8523 39.1536 77.8523 40.0062 77.8523 40.9546C77.6227 42.856 77.1281 44.755 75.9445 46.3271C74.6297 48.2284 72.4594 49.6697 70.3219 50.3891C67.4625 51.3398 64.4695 51.5687 61.4789 51.5687C59.4398 51.5687 57.4031 51.5687 55.4953 51.5687C55.4953 58.6137 55.4953 65.6259 55.4953 72.6709C50.9578 72.6709 46.5211 72.6709 41.9836 72.6709C41.9836 65.6259 41.9836 58.6137 41.9836 51.5687C40.8 51.5687 39.4852 51.5687 38.2687 51.5687C37.1836 51.5687 36.0984 52.3886 35.6391 53.372C35.4094 53.9606 35.4094 54.5516 35.4094 55.2734C35.4094 61.106 35.4094 66.8406 35.4094 72.6732C29.1961 72.6732 22.8516 72.6732 16.6359 72.6732C14.8266 72.6732 12.9211 72.804 11.1445 72.4443C8.74453 71.9538 6.60703 70.905 4.8 69.2325C2.17031 66.7401 0.492188 63.2667 0.13125 59.6952C0 59.1042 0 58.5156 0 57.7938C0 52.5521 0 47.3081 0 41.9356C0 39.3148 0.229688 36.694 1.18359 34.3021C2.4 31.8774 4.17422 29.7471 6.34453 28.4367Z" fill="#040404"/>
<path d="M22.2588 79.4519C22.8494 79.3211 23.4424 79.4519 24.0682 79.4519C26.1072 79.4519 28.2424 79.4519 30.2814 79.4519C30.2814 79.9425 30.2814 80.2718 30.2814 80.7623C29.7893 80.8932 29.1963 80.7623 28.7369 80.7623C28.1463 80.7623 27.5533 80.6315 27.0611 80.7623C27.0611 84.2358 27.0611 87.5457 27.0611 91.0191C26.5689 91.0191 26.1072 91.0191 25.615 91.0191C25.615 87.5457 25.615 84.2358 25.615 80.7623C25.0244 80.6315 24.5299 80.7623 23.9393 80.7623C23.5783 80.7623 23.3486 80.7623 22.9854 80.7623C22.7557 80.7623 22.4932 80.7623 22.2611 80.6315C22.2588 80.3045 22.2588 79.9448 22.2588 79.4519Z" fill="#040404"/>
<path d="M31.3311 79.4519C31.8232 79.4519 32.285 79.4519 32.6459 79.4519C32.6459 80.8931 32.6459 82.3017 32.6459 83.6121C33.0068 83.2523 33.5998 83.0234 34.092 82.8903C34.5842 82.7595 35.0459 82.8903 35.5381 82.8903C36.2623 83.1192 36.8529 83.3808 37.2139 84.0699C37.5748 84.6585 37.7061 85.5111 37.7061 86.2329C37.7061 87.7722 37.7061 89.4447 37.7061 91.0167C37.2139 91.0167 36.8834 91.0167 36.3912 91.0167C36.26 89.7063 36.3912 88.3959 36.3912 86.9547C36.3912 86.1348 36.5225 85.2845 36.0303 84.5628C35.4396 83.841 34.2209 83.841 33.5318 84.3338C33.1709 84.5628 32.9412 85.0556 32.8076 85.4154C32.6764 87.2186 32.8076 89.1177 32.8076 90.8883C32.3154 90.8883 31.8537 90.8883 31.4928 90.8883C31.3311 87.2186 31.3311 83.2874 31.3311 79.4519Z" fill="#040404"/>
<path d="M52.275 80.1736C53.4586 79.2229 55.2656 79.0921 56.5828 79.6831C57.8977 80.2717 58.7203 81.5845 58.8516 82.8949C58.3594 82.8949 58.0289 82.8949 57.5367 82.8949L57.4055 82.7641C57.2742 81.9442 56.6812 81.094 55.8609 80.7319C55.2703 80.503 54.6773 80.503 54.0516 80.6011C53.2289 80.83 52.507 81.421 52.2422 82.2712C52.0125 83.0911 52.0125 83.9414 52.0125 84.7613C52.0125 85.8428 52.0125 86.8916 52.1437 87.875C52.3734 88.6948 53.0977 89.4143 53.9531 89.6782C54.7758 89.809 55.7625 89.6782 56.4516 89.0896C57.0422 88.5991 57.2742 87.91 57.4055 87.1882C57.4055 86.8285 57.4055 86.4664 57.4055 86.1067C56.4516 86.1067 55.4977 86.1067 54.6445 86.1067C54.6445 85.6162 54.6445 85.2868 54.6445 84.7963C56.0906 84.7963 57.5039 84.7963 58.8188 84.7963C58.8188 85.8778 58.8187 86.8285 58.6875 87.91C58.3266 89.7133 56.7797 90.8905 54.9727 91.0237C54.743 91.0237 54.4805 91.0237 54.15 91.0237C52.8352 90.8929 51.6516 90.2038 51.0258 89.1223C50.4352 88.1716 50.4352 86.8612 50.4352 85.7797C50.4352 84.6001 50.3039 83.2897 50.5664 82.0774C51.0914 81.3859 51.5508 80.6642 52.275 80.1736Z" fill="#040404"/>
<path d="M69.1406 79.4519C71.7703 79.4519 74.5313 79.4519 77.1633 79.4519C77.1633 79.9424 77.1633 80.2718 77.1633 80.7623C76.9336 80.7623 76.5727 80.7623 76.3406 80.7623C75.518 80.7623 74.7961 80.7623 73.9406 80.7623C73.9406 84.2357 73.9406 87.5457 73.9406 91.0191C73.4484 91.0191 72.9867 91.0191 72.4945 91.0191C72.4945 90.8883 72.4945 90.7902 72.3633 90.6593C72.3633 88.2674 72.3633 85.7774 72.3633 83.3855C72.3633 82.5656 72.3633 81.7153 72.3633 80.8955C71.2781 80.7647 70.2258 80.8955 69.1406 80.8955C69.1406 80.3045 69.1406 79.9448 69.1406 79.4519Z" fill="#040404"/>
<path d="M82.7834 80.3046C84.3279 78.9941 86.9576 78.9941 88.5373 80.5335C89.1279 81.1221 89.36 81.8439 89.6225 82.5657C89.6225 82.6965 89.6225 82.7946 89.6225 82.9254C89.1303 82.9254 88.6686 82.9254 88.1764 82.9254C87.9467 82.3368 87.6842 81.615 87.2225 81.1221C86.1373 80.1714 84.2318 80.4003 83.4092 81.6126C82.917 82.3344 82.917 83.2828 82.8186 84.1027C82.8186 85.4131 82.6873 86.8543 83.0482 88.0339C83.4092 88.9846 84.4943 89.7041 85.5467 89.5732C86.8615 89.5732 87.9467 88.6226 88.1764 87.4429C88.1764 86.9524 88.1764 86.4922 88.1764 86.0017C87.2225 86.0017 86.2686 86.0017 85.317 86.0017C85.317 85.5112 85.317 85.1818 85.317 84.6913C86.7631 84.6913 88.1764 84.6913 89.4912 84.6913C89.4912 86.0017 89.7209 87.4429 89.1303 88.6225C88.5397 89.933 87.2225 90.7528 85.7764 90.8837C85.5467 90.8837 85.2842 90.8837 84.9537 90.8837C83.5076 90.7528 82.0943 89.933 81.5998 88.4917C81.2389 87.4102 81.3701 86.2306 81.2389 85.0183C81.2389 83.9368 81.1076 82.8553 81.3701 81.9046C81.6982 81.4842 82.1904 80.7647 82.7834 80.3046Z" fill="#040404"/>
<path d="M60.8881 79.4519C62.3342 79.3211 63.7475 79.4519 65.1959 79.4519C66.3795 79.4519 67.6943 79.9425 68.3201 81.1221C68.8123 81.8439 68.8123 82.7922 68.6811 83.6121C68.5498 84.5628 67.9568 85.4154 67.1365 85.8732C66.5459 86.2329 65.6904 86.3637 64.999 86.3637C64.0451 86.3637 63.0912 86.3637 62.2381 86.3637C62.2381 87.9031 62.2381 89.4774 62.2381 91.0168C61.7459 91.0168 61.2842 91.0168 60.792 91.0168C60.8881 87.2187 60.8881 83.4182 60.8881 79.4519ZM62.3342 85.0884C63.2881 85.0884 64.3732 85.0884 65.3248 85.0884C65.9154 85.0884 66.6396 84.8594 67.0006 84.2685C67.4928 83.6798 67.4928 82.8272 67.2303 82.2363C67.0006 81.4164 66.1451 80.9259 65.3225 80.9259C64.7318 80.9259 64.1389 80.7951 63.5131 80.9259C63.0209 80.9259 62.5592 80.9259 62.067 80.9259C62.3342 82.2059 62.3342 83.6471 62.3342 85.0884Z" fill="#040404"/>
<path d="M91.3968 82.9252C91.889 82.9252 92.2194 82.9252 92.7116 82.9252C92.7116 83.1541 92.7116 83.4157 92.7116 83.647C93.6655 82.8271 95.1116 82.5655 96.1968 83.1564C96.4265 83.2872 96.689 83.3853 96.7874 83.7451C96.5577 84.1048 96.1968 84.3337 95.8335 84.6958C95.4726 84.4668 95.0108 84.1071 94.3874 84.1071C93.4335 84.1071 92.578 84.927 92.578 85.9104C92.578 87.5805 92.578 89.3838 92.578 91.054C92.0858 91.054 91.7554 91.054 91.2632 91.054C91.3968 88.3 91.3968 85.6792 91.3968 82.9252Z" fill="#040404"/>
<path d="M105.042 83.0562C105.173 83.0562 105.272 83.0562 105.403 83.0562C105.764 83.0562 106.127 83.0562 106.357 83.0562C106.357 83.7779 106.488 84.5955 106.357 85.3173C106.357 85.9059 106.357 86.3988 106.357 86.9874C106.357 87.3471 106.357 87.576 106.357 87.9381C106.357 88.5267 106.488 89.2485 106.948 89.7414C107.77 90.33 109.216 90.2319 109.708 89.2508C110.069 88.6622 109.938 88.0712 109.938 87.4476C109.938 86.0063 109.938 84.5978 109.938 83.1543C110.43 83.1543 110.892 83.1543 111.253 83.1543C111.253 85.9059 111.253 88.5267 111.253 91.248C110.761 91.248 110.43 91.248 109.938 91.248C109.938 91.0191 109.938 90.7575 109.938 90.5262C109.214 91.1149 108.394 91.4769 107.44 91.3461C106.617 91.2153 105.764 90.8556 105.401 90.1665C104.81 89.3466 104.908 88.1343 104.908 87.1859C105.042 85.6793 105.042 84.3689 105.042 83.0562Z" fill="#040404"/>
<path d="M40.5704 83.647C41.393 82.9252 42.4782 82.8271 43.561 83.0584C44.6438 83.2896 45.4688 84.238 45.8298 85.3195C46.0594 86.0413 46.0594 86.7607 46.0594 87.5806C44.2501 87.5806 42.4759 87.5806 40.8001 87.5806C40.8001 88.3024 41.0298 89.0218 41.5243 89.482C42.1149 90.0706 43.2001 90.0706 43.9243 89.8417C44.4165 89.7109 44.6485 89.3512 45.0094 89.1199C45.3704 89.3488 45.6001 89.6105 45.9634 89.9398C45.1407 90.8905 43.793 91.381 42.4782 91.2502C41.6555 91.1194 40.8024 90.8905 40.3079 90.1687C39.5837 89.3488 39.354 88.0384 39.4852 86.9569C39.354 85.6792 39.6165 84.3688 40.5704 83.647ZM41.3907 84.4669C40.8985 84.9574 40.6665 85.6465 40.6665 86.2702C41.9813 86.2702 43.2962 86.2702 44.611 86.2702C44.4798 85.7796 44.4798 85.1887 44.1188 84.7308C43.561 83.8759 42.1149 83.7451 41.3907 84.4669Z" fill="#040404"/>
<path d="M97.8749 83.745C99.1897 82.4346 101.59 82.5654 102.773 83.974C103.498 84.7939 103.596 85.8754 103.596 86.9545C103.596 87.9052 103.465 88.9867 102.872 89.8043C102.38 90.526 101.426 90.9839 100.603 90.9839C100.373 90.9839 100.111 90.9839 99.7803 90.9839C98.8264 90.8531 97.8725 90.3952 97.3803 89.4445C96.7897 88.4939 96.7897 87.3142 96.8882 86.3308C96.921 85.5483 97.1507 84.4668 97.8749 83.745ZM99.0585 84.4668C98.5663 84.8266 98.3342 85.5483 98.3342 86.137C98.203 87.0877 98.203 88.0384 98.5639 88.9867C99.1546 90.1663 101.062 90.2971 101.787 89.1175C102.279 88.1668 102.148 87.0853 102.148 86.0038C102.016 85.5133 101.918 85.0531 101.655 84.8242C100.964 84.0067 99.7803 83.8759 99.0585 84.4668Z" fill="#040404"/>
<path d="M114.872 83.6471C115.364 83.1565 116.056 82.8272 116.78 82.8272C117.734 82.6964 118.688 83.0561 119.278 83.9087C120.003 84.9902 120.003 86.3006 120.003 87.611C119.871 88.4309 119.773 89.4143 119.278 90.101C118.786 90.6897 118.095 90.9209 117.371 91.0517C117.141 91.0517 116.878 91.0517 116.646 91.0517C116.056 90.9209 115.463 90.692 114.971 90.2319C114.971 91.6731 114.971 93.0816 114.971 94.5252C114.478 94.5252 114.017 94.5252 113.524 94.5252C113.524 90.7247 113.524 86.7608 113.524 82.958C113.885 82.958 114.249 82.958 114.61 82.958C114.741 82.958 114.839 82.958 114.839 83.0888C114.872 83.2873 114.872 83.5163 114.872 83.6471ZM116.417 84.1049C115.463 84.2357 114.971 85.0556 114.872 85.9082C114.741 86.8589 114.741 87.9404 115.102 88.8887C115.594 89.9702 117.01 90.0683 117.863 89.3793C118.355 88.8887 118.453 88.1997 118.453 87.4779C118.453 86.5272 118.585 85.5765 118.092 84.7262C117.863 84.2357 117.141 84.0068 116.417 84.1049Z" fill="#040404"/>
</g>
<defs>
<clipPath id="clip0_4638_764">
<rect width="120" height="119.596" fill="white"/>
</clipPath>
</defs>
</svg>
