<svg width="120" height="46" viewBox="0 0 120 46" fill="none" xmlns="http://www.w3.org/2000/svg">
<g clip-path="url(#clip0_4638_749)">
<path d="M2.19336 38.2017H3.1319V41.0764H6.7298V38.2017H7.63715V44.9095H6.7298V41.8431H3.1319V44.9095H2.19336V38.2017Z" fill="#231F20"/>
<path d="M22.1851 42.4819C22.1851 44.1748 21.1839 45.0692 19.4632 45.0692C17.7112 45.0692 16.6475 44.2707 16.6475 42.4819V38.2017H17.586V42.4819C17.586 43.6638 18.2743 44.3346 19.4632 44.3346C20.6208 44.3346 21.2778 43.6638 21.2778 42.4819V38.2017H22.1851V42.4819Z" fill="#231F20"/>
<path d="M33.5419 45.1012C31.477 45.229 30.2256 43.4402 30.2256 41.6834C30.2256 39.7349 31.3206 38.042 33.5106 38.042C35.0124 38.042 36.2011 38.6808 36.4515 40.2779H35.5442C35.3565 39.2558 34.5117 38.7767 33.5106 38.7767C31.8211 38.7767 31.1328 40.2141 31.1328 41.6515C31.1328 43.0569 32.0089 44.3985 33.667 44.3665C34.5117 44.3346 35.2 44.1749 35.5442 43.5999C35.7944 43.2486 35.7318 42.6097 35.7006 42.1306H33.5106V41.364H36.514C36.514 41.364 36.514 43.1208 36.514 43.8874C35.7319 44.8776 34.7933 45.0373 33.5419 45.1012Z" fill="#231F20"/>
<path d="M47.7455 44.3346C49.4037 44.3346 50.1233 42.8972 50.1233 41.5556C50.1233 40.2141 49.4037 38.7767 47.7455 38.7767C46.0561 38.7767 45.3678 40.2141 45.3678 41.5556C45.3678 42.8972 46.0561 44.3346 47.7455 44.3346ZM47.7455 38.042C49.9355 38.042 51.0305 39.7349 51.0305 41.5556C51.0305 43.3763 49.9355 45.0693 47.7455 45.0693C45.5554 45.0693 44.4604 43.3763 44.4604 41.5556C44.4604 39.7349 45.5554 38.042 47.7455 38.042Z" fill="#231F20"/>
<path d="M69.458 41.0764H71.2726C72.3051 41.0764 72.7431 40.7251 72.7431 40.0224C72.7431 39.096 72.0861 38.9363 71.2726 38.9363H69.458V41.0764ZM69.458 44.1748H71.7419C72.5241 44.1748 73.0246 43.6957 73.0246 42.961C73.0246 42.0986 72.3051 41.8431 71.523 41.8431H69.458V44.1748ZM68.5508 38.2017H71.0224C71.6481 38.2017 72.4302 38.2017 72.837 38.4252C73.3063 38.7127 73.6504 39.1919 73.6504 39.8307C73.6504 40.5654 73.275 41.1084 72.6492 41.3639C73.4939 41.5236 73.9633 42.1625 73.9633 42.993C73.9633 43.9832 73.2124 44.9095 71.8671 44.9095H68.5508V38.2017Z" fill="#231F20"/>
<path d="M85.4451 44.3346C87.1346 44.3346 87.8229 42.8972 87.8229 41.5556C87.8229 40.2141 87.1346 38.7767 85.4451 38.7767C83.787 38.7767 83.0674 40.2141 83.0674 41.5556C83.0674 42.8972 83.787 44.3346 85.4451 44.3346ZM85.4451 38.042C87.6351 38.042 88.7614 39.7349 88.7614 41.5556C88.7614 43.3763 87.6351 45.0693 85.4451 45.0693C83.2552 45.0693 82.1602 43.3763 82.1602 41.5556C82.1602 39.7349 83.2552 38.042 85.4451 38.042Z" fill="#231F20"/>
<path d="M101.37 40.1821C101.276 39.1919 100.619 38.7767 99.6804 38.7767C98.8982 38.7767 98.1473 39.0641 98.1473 39.9266C98.1473 40.7571 99.2423 40.8849 100.337 41.1404C101.432 41.364 102.527 41.7473 102.527 43.0889C102.527 44.4943 101.088 45.0693 99.8367 45.0693C98.3037 45.0693 97.021 44.3346 97.021 42.7056H97.8658C97.8658 43.8235 98.8356 44.3346 99.868 44.3346C100.713 44.3346 101.62 44.0791 101.62 43.0889C101.62 42.1625 100.525 42.0348 99.43 41.7792C98.335 41.5556 97.2087 41.2362 97.2087 39.9905C97.2087 38.6489 98.4602 38.042 99.7115 38.042C101.119 38.042 102.183 38.6808 102.246 40.1821H101.37Z" fill="#231F20"/>
<path d="M116.199 40.1821C116.074 39.1919 115.417 38.7767 114.479 38.7767C113.728 38.7767 112.946 39.0641 112.946 39.9266C112.946 40.7571 114.041 40.8849 115.167 41.1404C116.262 41.364 117.357 41.7473 117.357 43.0889C117.357 44.4943 115.918 45.0693 114.666 45.0693C113.133 45.0693 111.819 44.3346 111.819 42.7056H112.695C112.695 43.8235 113.665 44.3346 114.698 44.3346C115.511 44.3346 116.45 44.0791 116.45 43.0889C116.45 42.1625 115.323 42.0348 114.228 41.7792C113.133 41.5556 112.038 41.2362 112.038 39.9905C112.038 38.6489 113.258 38.042 114.541 38.042C115.918 38.042 117.013 38.6808 117.044 40.1821H116.199Z" fill="#231F20"/>
<path d="M10.2651 2.7458V14.8199H14.5513C14.5513 14.8199 14.9267 14.788 15.1457 14.7241C17.6485 14.5005 19.2442 11.4341 19.4005 9.19811C19.6509 6.80245 18.2117 2.84162 14.6139 2.7458C13.5501 2.71385 10.2651 2.7458 10.2651 2.7458ZM10.2651 16.2254V30.6952H14.1445C14.1445 30.6952 16.3346 30.8549 18.3055 29.2259C20.2453 27.6287 21.2464 25.265 21.0275 22.5499C20.871 20.1223 19.0564 16.6726 14.9893 16.2254C12.8306 16.2254 10.2651 16.2254 10.2651 16.2254ZM19.4005 1.34033C22.623 1.53199 24.7191 3.28881 24.9069 3.5124C26.565 5.07757 27.0656 7.4413 26.6589 9.70919C26.1271 13.5103 21.4967 15.1074 21.4967 15.1074C25.3762 15.5865 28.2858 18.5572 28.7237 21.7514C29.0992 24.8817 27.9729 27.6607 25.4387 29.6092C22.8733 31.5576 19.119 32.1965 17.0854 32.1965C17.0854 32.1965 1.37984 32.1965 0.503878 32.1965C0.503878 31.6854 0.503878 31.3021 0.503878 30.8549C2.63129 30.8869 2.88162 30.8869 2.88162 30.0244C2.85033 26.7663 2.88162 4.02347 2.88162 3.41658C2.88162 2.71384 2.53741 2.68191 0.503878 2.68191C0.472588 2.13889 0.53517 1.34033 0.53517 1.34033H19.4005Z" fill="#231F20"/>
<path d="M44.9926 3.0014C42.9278 4.40686 41.4886 7.63303 40.8004 10.3162C39.7053 14.3728 39.9243 19.1642 41.0193 24.0832C42.1456 29.0023 45.2429 30.7272 47.0888 31.1425C50.5303 31.941 52.7828 29.8967 54.003 28.0121C56.3807 24.3388 56.9752 16.7685 56.2243 12.4243C55.536 8.39964 54.4723 5.58872 52.4074 3.70414C50.0923 1.62789 46.7759 1.7876 44.9926 3.0014ZM63.5452 22.1028C62.106 26.4789 59.2277 29.2259 55.9115 31.0147C51.5627 33.4104 45.3368 33.7937 40.988 31.1425C38.2975 29.5134 31.4459 25.1693 32.3531 14.9158C32.5409 12.7118 33.6359 7.18583 39.6741 3.03335C43.8037 0.286321 49.7481 -0.512233 55.2857 2.10703C63.9206 6.13174 65.7352 16.0658 63.5452 22.1028Z" fill="#231F20"/>
<path d="M88.9181 2.77774C88.9494 5.07758 88.9181 9.83697 88.9181 9.83697L87.8232 9.86891C87.1661 6.89829 85.7582 4.34291 83.3493 3.16105C81.0341 2.01112 77.5301 1.43617 75.2462 3.48047C73.9009 4.69427 73.7132 5.94002 74.1824 7.34547C74.9959 9.42172 77.2485 10.0606 79.0005 10.8591C80.4397 11.4341 83.5056 12.4562 83.5056 12.4562C86.9158 13.67 90.7015 16.0337 91.7339 19.9626C92.2031 21.6556 92.2031 23.5721 91.8277 25.297C90.983 29.13 88.574 30.0564 87.1974 31.0146C86.5091 31.4938 80.0642 34.0172 72.3054 31.4299C70.7097 30.8869 68.8638 30.248 68.8638 30.248V21.6556C68.8638 21.6556 69.7086 21.6875 70.0527 21.6875C70.5845 23.061 71.0539 24.722 72.1802 26.383C74.8082 30.28 78.5312 31.4618 82.6297 30.5674C84.2565 30.1841 86.0398 29.0342 86.5091 27.3093C87.1035 25.3609 86.9158 22.1347 81.1592 19.9626C76.9982 18.0142 71.7734 17.2156 69.3019 12.4882C68.332 9.83697 68.6136 5.23729 71.8047 3.00133C75.0272 0.765379 78.1557 0.254309 81.9414 0.76538C85.6957 1.3084 86.6969 1.81947 88.9181 2.77774Z" fill="#231F20"/>
<path d="M116.324 2.77774C116.356 5.07758 116.324 9.83697 116.324 9.83697L115.229 9.86891C114.572 6.89829 113.164 4.34291 110.756 3.16105C108.44 2.01112 104.936 1.43617 102.652 3.48047C101.307 4.69427 101.119 5.94002 101.589 7.34547C102.402 9.42172 104.655 10.0606 106.407 10.8591C107.846 11.4341 110.912 12.4562 110.912 12.4562C114.322 13.67 118.108 16.0337 119.14 19.9626C119.609 21.6556 119.609 23.5721 119.234 25.297C118.389 29.13 115.98 30.0564 114.604 31.0146C113.915 31.4938 107.47 34.0172 99.7115 31.4299C98.1159 30.8869 96.27 30.248 96.27 30.248V21.6556C96.27 21.6556 97.1148 21.6875 97.4589 21.6875C97.9907 23.061 98.4601 24.722 99.5864 26.383C102.214 30.28 105.937 31.4618 110.036 30.5674C111.663 30.1841 113.446 29.0342 113.915 27.3093C114.51 25.3609 114.322 22.1347 108.565 19.9626C104.404 18.0142 99.1796 17.2156 96.7081 12.4882C95.7382 9.83697 96.0198 5.23729 99.2422 3.00133C102.433 0.765379 105.562 0.254309 109.316 0.76538C113.102 1.3084 114.103 1.81947 116.324 2.77774Z" fill="#231F20"/>
</g>
<defs>
<clipPath id="clip0_4638_749">
<rect width="120" height="45.614" fill="white"/>
</clipPath>
</defs>
</svg>
