<svg width="120" height="120" viewBox="0 0 120 120" fill="none" xmlns="http://www.w3.org/2000/svg">
<path fill-rule="evenodd" clip-rule="evenodd" d="M114.085 20.5734C106.282 19.0002 98.1355 18.4076 87.5895 24.6717C79.8513 18.7083 61.8714 18.8253 49.3246 24.5758C33.6949 31.7376 27.8379 46.8381 36.3556 53.6563C42.72 58.7506 64.851 48.8259 67.0952 25.9902C60.881 45.5208 42.4784 57.0654 37.0871 52.1927C29.4217 45.2643 36.1745 31.694 52.4411 24.9848C63.8381 20.2839 77.851 20.0131 85.6864 25.4044C72.2008 34.234 61.9393 51.4612 51.3641 67.5354C42.8588 80.4626 31.1599 102.246 7.81055 99.1814C29.8961 106.308 51.1468 82.2487 59.7211 68.5962C72.9609 47.518 87.4246 16.4291 114.085 20.5734Z" fill="#080808"/>
<path fill-rule="evenodd" clip-rule="evenodd" d="M26.5161 49.9022H26.6879C26.8348 50.3386 27.0957 50.6598 27.4692 50.8659C27.8452 51.0732 28.3588 51.1766 29.01 51.1766C29.683 51.1766 30.2065 51.0701 30.5844 50.8591C30.9604 50.648 31.1497 50.3542 31.1497 49.9757C31.1497 49.4814 30.5035 49.0923 29.2111 48.809C29.0069 48.7636 28.845 48.7287 28.7317 48.7007C27.796 48.4915 27.1349 48.245 26.7445 47.9636C26.3542 47.6809 26.16 47.3124 26.16 46.8586C26.16 46.2124 26.4818 45.6925 27.1231 45.296C27.7668 44.8994 28.6172 44.7021 29.6705 44.7021C30.0889 44.7021 30.5091 44.7388 30.9343 44.8141C31.3589 44.8888 31.7916 45.0027 32.2342 45.1528C32.2093 45.2069 32.1259 45.3763 31.9901 45.6608C31.8532 45.9434 31.7424 46.1794 31.6589 46.3661H31.4672C31.3838 46.0063 31.1771 45.7317 30.8478 45.5437C30.5191 45.3545 30.0739 45.2605 29.5192 45.2605C28.9689 45.2605 28.5207 45.3669 28.1801 45.5786C27.8384 45.7896 27.6659 46.0623 27.6659 46.3941C27.6659 46.8536 28.3345 47.229 29.6705 47.521C29.8262 47.5521 29.9438 47.577 30.0273 47.5963C31.052 47.8179 31.7474 48.0676 32.1134 48.3421C32.482 48.6179 32.6662 48.9983 32.6662 49.4857C32.6662 50.1805 32.3195 50.7308 31.6247 51.1324C30.9318 51.5358 29.9806 51.7369 28.7722 51.7369C28.2729 51.7369 27.7917 51.702 27.3273 51.6323C26.8761 51.5644 26.4317 51.458 25.9987 51.3141C26.0548 51.1504 26.1189 50.9724 26.1905 50.78C26.2608 50.5845 26.3685 50.2932 26.5161 49.9022ZM36.6443 42.5126C36.6443 42.2853 36.7477 42.0986 36.9562 41.9504C37.1654 41.8016 37.4281 41.7288 37.7475 41.7288C38.1061 41.7288 38.3862 41.7985 38.5873 41.9404C38.789 42.0817 38.8899 42.2772 38.8899 42.5269C38.8899 42.7504 38.794 42.9284 38.6022 43.0629C38.4105 43.1974 38.1503 43.2633 37.8234 43.2633C37.4673 43.2633 37.1797 43.1955 36.9662 43.0585C36.7526 42.9228 36.6443 42.7392 36.6443 42.5126ZM36.6916 51.5644C36.7358 51.1678 36.7701 50.6424 36.7925 49.9856C36.8149 49.3276 36.8267 48.5083 36.8267 47.5272C36.8267 46.8847 36.8149 46.3643 36.7925 45.9608C36.7733 45.5969 36.7397 45.2339 36.6916 44.8726C36.8386 44.8901 36.9911 44.9038 37.1529 44.9131C37.6587 44.94 38.1658 44.9265 38.6695 44.8726C38.6246 45.1677 38.5904 45.4877 38.5686 45.8314C38.5416 46.3366 38.53 46.8426 38.5338 47.3485C38.5338 48.2811 38.5462 49.0929 38.5686 49.7827C38.5904 50.4737 38.6246 51.0676 38.6695 51.5638C38.4954 51.5424 38.3208 51.5254 38.1459 51.5127C37.8326 51.489 37.5179 51.489 37.2046 51.5127C37.0477 51.5239 36.8772 51.542 36.6916 51.5644ZM43.3081 51.5644C43.3523 51.2015 43.3865 50.7227 43.4089 50.1288C43.4307 49.5355 43.4432 48.6727 43.4432 47.5396C43.4432 46.7901 43.4307 46.2335 43.4089 45.8718C43.3891 45.5377 43.3554 45.2046 43.3081 44.8733C43.4432 44.8907 43.5876 44.9044 43.7451 44.9137C44.0725 44.9315 44.4007 44.9315 44.7281 44.9137C44.8825 44.9044 45.0276 44.8907 45.1602 44.8733C45.1477 45.1964 45.1384 45.4392 45.1334 45.6029C45.1259 45.7654 45.1185 45.9229 45.1135 46.0729C45.507 45.6249 46.0002 45.2756 46.5534 45.0532C47.1212 44.8191 47.7618 44.7021 48.4727 44.7021C49.1632 44.7021 49.7259 44.8104 50.1555 45.0283C50.5875 45.2468 50.8826 45.568 51.0451 45.9907C51.4695 45.5696 51.975 45.2391 52.5311 45.0196C53.0746 44.8085 53.6941 44.7014 54.3838 44.7014C54.8775 44.7014 55.3251 44.7624 55.7279 44.8851C56.1307 45.009 56.4694 45.1852 56.7445 45.4174C56.9755 45.6097 57.1374 45.817 57.2339 46.0418C57.3297 46.2659 57.3789 46.6407 57.3789 47.163V49.2162C57.3789 49.7945 57.3864 50.2502 57.3982 50.5839C57.4107 50.9188 57.4325 51.2457 57.4648 51.5632C57.1341 51.5179 56.8007 51.4953 56.4669 51.4953C56.3243 51.4953 56.1768 51.5022 56.0199 51.5146C55.8624 51.5264 55.698 51.542 55.5256 51.5632C55.5773 50.8155 55.6121 50.1904 55.6314 49.6843C55.6507 49.1794 55.6613 48.7225 55.6613 48.3116C55.6613 47.6287 55.6482 47.1767 55.6221 46.9532C55.5972 46.7297 55.5536 46.5622 55.4895 46.4483C55.3277 46.157 55.0774 45.9248 54.7748 45.7853C54.4629 45.6402 54.0769 45.5668 53.6175 45.5668C52.7845 45.5668 52.175 45.7903 51.7866 46.2354C51.4006 46.6805 51.2064 47.3896 51.2064 48.3633C51.2064 48.8545 51.2138 49.3625 51.2319 49.8879C51.2462 50.4139 51.2686 50.9705 51.2929 51.5625C51.1303 51.5409 50.9671 51.5239 50.8036 51.5115C50.5044 51.4874 50.2038 51.4874 49.9046 51.5115C49.7428 51.523 49.5815 51.54 49.4209 51.5625C49.4645 50.775 49.4968 50.15 49.5168 49.6837C49.5361 49.2174 49.546 48.8034 49.546 48.4454V47.7488C49.546 47.2526 49.5118 46.8916 49.4452 46.6643C49.3841 46.4464 49.2623 46.2504 49.094 46.0991C48.9172 45.926 48.6863 45.7934 48.4086 45.7025C48.109 45.6084 47.7963 45.5624 47.4823 45.5662C46.6593 45.5662 46.0548 45.7896 45.6688 46.2385C45.2859 46.6855 45.0942 47.394 45.0942 48.3633C45.0942 48.8719 45.1016 49.3905 45.1191 49.9159C45.134 50.4395 45.1558 50.9898 45.1807 51.5625C45.0182 51.5404 44.855 51.5233 44.6914 51.5115C44.3919 51.4892 44.0912 51.4892 43.7918 51.5115C43.6499 51.5239 43.4874 51.542 43.3081 51.5644ZM68.7647 48.2294C68.7647 47.2738 68.5188 46.5336 68.0301 46.0088C67.5414 45.4827 66.8529 45.2206 65.9713 45.2206C65.0811 45.2206 64.3857 45.4846 63.8871 46.0119C63.3884 46.5392 63.1381 47.2794 63.1381 48.2294C63.1381 49.1651 63.3884 49.8985 63.892 50.4258C64.3932 50.9531 65.0861 51.217 65.9713 51.217C66.8479 51.217 67.5314 50.9537 68.0251 50.4258C68.5188 49.8978 68.7647 49.1651 68.7647 48.2294ZM70.7892 48.2294C70.7892 49.2927 70.3528 50.1431 69.475 50.7806C68.5985 51.4181 67.4238 51.7356 65.9527 51.7356C64.4486 51.7356 63.267 51.425 62.4048 50.8012C61.5438 50.178 61.1148 49.3207 61.1148 48.2294C61.1148 47.1605 61.555 46.3051 62.434 45.6645C63.3131 45.0233 64.4878 44.7021 65.9527 44.7021C67.448 44.7021 68.6302 45.0164 69.4943 45.6471C70.3578 46.2771 70.7892 47.1381 70.7892 48.2294ZM74.4579 51.5644C74.5027 51.2015 74.537 50.7227 74.5588 50.1288C74.5818 49.5355 74.5943 48.6727 74.5943 47.5396C74.5943 46.7901 74.5818 46.2335 74.5588 45.8718C74.5395 45.5377 74.5059 45.2045 74.4579 44.8733C74.5943 44.8907 74.7374 44.9044 74.8956 44.9137C75.223 44.9315 75.5512 44.9315 75.8786 44.9137C76.033 44.9044 76.1768 44.8907 76.3113 44.8733C76.2988 45.1964 76.2895 45.4392 76.282 45.6029C76.277 45.7654 76.2695 45.9229 76.2627 46.0729C76.6563 45.6253 77.1492 45.2761 77.702 45.0532C78.271 44.8191 78.9129 44.7021 79.6232 44.7021C80.1094 44.7021 80.5595 44.7631 80.9717 44.8857C81.385 45.0096 81.7293 45.1827 82.0038 45.4043C82.2205 45.5911 82.3774 45.8027 82.4683 46.0362C82.5604 46.2696 82.6083 46.6457 82.6083 47.1642V49.2174C82.6083 49.6283 82.6158 50.0242 82.6326 50.4083C82.6469 50.7924 82.6725 51.1784 82.7042 51.5644C82.5333 51.5427 82.3618 51.5256 82.19 51.5134C81.8837 51.4901 81.5761 51.4901 81.2699 51.5134C81.0947 51.5258 80.9199 51.5429 80.7457 51.5644C80.798 50.7732 80.8322 50.1413 80.8515 49.6712C80.8708 49.2 80.882 48.7878 80.882 48.4336V47.7245C80.882 47.2408 80.8465 46.8878 80.7749 46.6625C80.7109 46.4478 80.5913 46.2539 80.4282 46.1003C80.2185 45.9194 79.9734 45.7844 79.7085 45.7037C79.4011 45.6088 79.0808 45.5628 78.7591 45.5674C77.9081 45.5674 77.2868 45.7909 76.8915 46.2397C76.4974 46.688 76.3019 47.3971 76.3019 48.3676C76.3019 49.0313 76.3094 49.6196 76.3262 50.1325C76.3405 50.6443 76.3648 51.1212 76.3978 51.5625C76.232 51.5424 76.0657 51.5262 75.8991 51.514C75.5909 51.4895 75.2812 51.4889 74.9728 51.5121C74.814 51.5239 74.6447 51.542 74.4579 51.5644ZM88.37 47.5795H89.3182C89.8287 47.5795 90.7824 47.5726 92.1781 47.5583C92.5803 47.5583 92.891 47.5564 93.107 47.5515C93.1213 47.4712 93.1288 47.3958 93.1363 47.328C93.1437 47.2601 93.1462 47.2003 93.1462 47.1499C93.1462 46.5734 92.9395 46.1109 92.5274 45.7666C92.114 45.4211 91.5681 45.248 90.8907 45.248C90.1443 45.248 89.5547 45.4491 89.1214 45.8488C88.6888 46.2491 88.4385 46.8256 88.37 47.5795ZM88.3202 48.1522L88.3103 48.2836C88.3103 49.1913 88.5923 49.8972 89.1551 50.3965C89.7178 50.8977 90.5122 51.1473 91.5357 51.1473C92.1427 51.1473 92.6955 51.0689 93.1942 50.912C93.6928 50.7545 94.0962 50.5328 94.4025 50.2465L94.664 50.2938C94.6282 50.3962 94.6009 50.5013 94.5824 50.6082C94.5606 50.7265 94.5339 50.8908 94.5009 51.1006C94.0147 51.3135 93.4793 51.476 92.8972 51.5843C92.3145 51.6945 91.6982 51.7487 91.0439 51.7487C89.5728 51.7487 88.4198 51.4449 87.5893 50.8391C86.7564 50.2309 86.3418 49.3936 86.3418 48.3247C86.3418 47.2296 86.7564 46.3518 87.5844 45.6919C88.4124 45.0332 89.5199 44.7033 90.9088 44.7033C92.2087 44.7033 93.2228 44.9741 93.958 45.5157C94.6901 46.0567 95.0562 46.8063 95.0562 47.7662C95.0562 47.8795 95.0537 47.9648 95.0512 48.0209C95.0489 48.0746 95.0442 48.1282 95.0369 48.1815H94.8545C93.505 48.1513 92.1553 48.1332 90.8054 48.1273C90.4991 48.1273 90.1673 48.1292 89.8106 48.1348C89.4582 48.1367 88.9596 48.1435 88.3202 48.1522ZM88.2549 72.8276C88.3967 71.8331 88.498 70.8333 88.5587 69.8306C88.6272 68.6756 88.66 67.5188 88.657 66.3618C88.657 64.9729 88.6253 63.7564 88.5624 62.7136C88.5134 61.7611 88.4108 60.8121 88.2549 59.8711C88.5238 59.8941 88.8071 59.9134 89.1109 59.9252C89.768 59.9506 90.4259 59.9506 91.0831 59.9252C91.3869 59.9134 91.6702 59.8941 91.9391 59.8711C91.8656 60.648 91.8116 61.4266 91.7772 62.2063C91.7417 63.0149 91.7225 63.9494 91.7225 65.0108C91.7225 66.7776 91.7349 68.2026 91.7542 69.2809C91.7656 70.1279 91.7957 70.9746 91.8445 71.8203H95.0363C95.8997 71.8203 96.7676 71.7941 97.636 71.7425C98.5032 71.6902 100.357 71.4275 101.229 71.3229C101.091 71.8091 100.934 72.2274 100.865 72.7553C99.9301 72.7367 98.3569 72.7971 97.3789 72.7877C95.3752 72.7696 93.3713 72.7696 91.3676 72.7877C90.33 72.7965 89.2924 72.8098 88.2549 72.8276ZM46.8018 66.363C46.9245 66.3699 47.0627 66.3748 47.2202 66.3767C47.3739 66.3792 47.5869 66.3817 47.867 66.3817C49.9301 66.3817 51.5008 66.1495 52.5766 65.6869C53.6505 65.2256 54.2481 63.9886 54.2481 63.0953C54.2481 62.2915 53.7868 61.6752 52.8673 61.2407C51.9478 60.8093 50.6311 60.5932 48.9148 60.5932C48.5873 60.5932 48.2679 60.6007 47.9604 60.6119C47.6528 60.6244 47.3565 60.6455 47.0807 60.6767C47.0067 61.0034 46.9526 61.3344 46.9189 61.6678C46.8834 62.0139 46.874 62.4839 46.8635 63.076L46.8018 66.363ZM46.8641 68.5575C46.879 69.1147 46.8803 69.7266 46.9114 70.3971C46.9431 71.0651 46.9979 71.8769 47.0807 72.8276C46.8435 72.7964 46.5833 72.7728 46.3032 72.7585C45.9878 72.7417 45.6721 72.7338 45.3563 72.7348C44.9933 72.7348 44.6783 72.7448 44.4056 72.7609C44.1336 72.7778 43.8815 72.7995 43.6443 72.8276C43.7594 71.5165 43.8416 70.2172 43.9014 68.9242C43.9562 67.6349 43.9835 66.3431 43.9835 65.0501C43.9835 64.0235 43.9562 63.0897 43.9014 62.243C43.8481 61.4421 43.7623 60.6438 43.6443 59.8499C44.3782 59.8994 45.1137 59.9239 45.8493 59.9234C46.4843 59.9234 47.3366 59.9115 48.3974 59.8854C49.4626 59.8617 50.2041 59.8493 50.6261 59.8493C52.843 59.8493 54.5389 60.1058 55.7105 60.6175C56.8821 61.1292 57.4655 61.8744 57.4655 62.8512C57.4655 63.7209 57.4038 64.8695 56.366 65.4902C55.3936 66.0723 54.3602 66.8399 52.3687 67.0559C53.7532 68.1678 54.0707 68.4392 55.4777 69.5374C56.8865 70.6362 60.5452 73.6724 61.9727 74.7649C61.2089 74.7069 60.4433 74.6762 59.6774 74.6728C59.3288 74.6731 58.9803 74.681 58.6321 74.6965C58.2729 74.7114 57.8745 74.7344 57.4449 74.7649C56.3442 73.6717 52.9812 70.5839 51.6558 69.6077C50.2688 68.5855 49.8816 68.4087 48.4534 67.3852L46.8323 67.4164L46.8641 68.5575ZM25.868 58.0906L29.1675 55.8139L32.1632 55.8233L27.702 58.0912L25.868 58.0906ZM75.7223 57.7992L72.4222 55.5226L69.4265 55.5319L73.8877 57.7999L75.7223 57.7992ZM22.3288 72.8276C22.467 71.9006 22.5735 70.902 22.6426 69.8306C22.7117 68.7592 22.7441 67.6044 22.7441 66.3618C22.7441 64.9729 22.7117 63.7564 22.6469 62.7136C22.5962 61.7636 22.49 60.8174 22.3288 59.8798C23.4002 59.8922 24.4473 59.9034 25.4739 59.9134C27.4743 59.9325 29.4749 59.9325 31.4753 59.9134C32.5169 59.9041 33.5584 59.89 34.5999 59.8711C34.4704 60.3156 34.6048 60.7545 34.842 61.1965C34.0676 61.0919 32.665 61.011 31.781 60.9593C30.8257 60.905 29.8691 60.8789 28.9123 60.8808H25.9103V65.4834H29.198C29.8866 65.4834 30.6037 65.469 31.3489 65.441C32.0947 65.4149 32.8897 65.3719 33.7252 65.3178C33.698 65.4228 33.6789 65.5298 33.6679 65.6377C33.6636 65.7205 33.6592 65.8021 33.6592 65.8824C33.6592 66.0057 33.6754 66.2068 33.7084 66.4844V66.5865C32.7985 66.5386 31.8883 66.4967 30.9779 66.4608C30.3521 66.4375 29.7259 66.4242 29.0997 66.4209H25.9103V68.4311C25.9103 68.8625 25.9228 69.3699 25.9427 69.9508C25.9633 70.5297 25.9956 71.1554 26.0367 71.8215H29.0069C29.8872 71.8215 30.7756 71.7954 31.6677 71.7437C32.5635 71.6914 34.8277 71.4287 35.7404 71.3241C35.4727 71.9965 35.3544 71.9859 35.2093 72.8294C34.3085 72.8108 32.5305 72.7983 31.5693 72.789C29.5569 72.7703 27.5443 72.7703 25.5318 72.789C24.4884 72.7971 23.4208 72.8089 22.3288 72.8276ZM67.0427 72.8276C67.1816 71.9006 67.2874 70.902 67.3565 69.8306C67.4256 68.7592 67.4574 67.6044 67.4574 66.3618C67.4574 64.9729 67.4256 63.7564 67.3602 62.7136C67.3098 61.7636 67.2037 60.8174 67.0427 59.8798C68.1142 59.8922 69.1607 59.9034 70.1872 59.9134C72.1883 59.9325 74.1894 59.9325 76.1905 59.9134C77.1511 59.9034 78.413 59.8898 79.3144 59.8711C79.1856 60.3156 79.3194 60.7545 79.5566 61.1965C78.7822 61.0919 77.3802 61.011 76.4962 60.9593C75.5411 60.905 74.5847 60.8789 73.6281 60.8808H70.6249V65.4834H73.9126C74.6017 65.4834 75.3195 65.469 76.0635 65.441C76.8559 65.4116 77.6479 65.3705 78.4391 65.3178C78.4129 65.423 78.3938 65.5299 78.3819 65.6377C78.3781 65.7205 78.3744 65.8021 78.3744 65.8824C78.3744 66.0057 78.3899 66.2068 78.4229 66.4844V66.5865C77.5133 66.5387 76.6033 66.4967 75.6931 66.4608C75.067 66.4375 74.4407 66.4242 73.8142 66.4209H70.6236V68.4311C70.6236 68.8625 70.6361 69.3699 70.6566 69.9508C70.6772 70.5297 70.7102 71.1554 70.75 71.8215H73.7202C74.6005 71.8215 75.4882 71.7954 76.3804 71.7437C77.2762 71.6914 79.5404 71.4287 80.4537 71.3241C80.186 71.9965 80.0683 71.9859 79.922 72.8294C79.0212 72.8108 77.2432 72.7983 76.2814 72.789C74.2691 72.7703 72.2568 72.7703 70.2445 72.789C69.2024 72.7971 68.1347 72.8089 67.0427 72.8276ZM104.824 72.8276C104.97 71.8333 105.075 70.8335 105.138 69.8306C105.207 68.7592 105.239 67.6044 105.239 66.3618C105.239 64.9729 105.207 63.7564 105.141 62.7136C105.09 61.7637 104.984 60.8175 104.824 59.8798C105.895 59.8922 106.942 59.9034 107.968 59.9134C109.969 59.9325 111.97 59.9325 113.97 59.9134C114.932 59.9034 116.194 59.8898 117.096 59.8711C116.967 60.3156 117.101 60.7545 117.338 61.1965C116.563 61.0919 115.161 61.011 114.277 60.9593C113.322 60.905 112.366 60.8789 111.409 60.8808H108.406V65.4834H111.694C112.383 65.4834 113.101 65.469 113.845 65.441C114.637 65.4116 115.429 65.3705 116.22 65.3178C116.194 65.4229 116.174 65.5298 116.163 65.6377C116.159 65.7205 116.154 65.8021 116.154 65.8824C116.154 66.0057 116.171 66.2068 116.204 66.4844V66.5865C115.294 66.5387 114.384 66.4967 113.473 66.4608C112.847 66.4375 112.221 66.4242 111.595 66.4209H108.405V68.4311C108.405 68.8625 108.417 69.3699 108.438 69.9508C108.458 70.5297 108.491 71.1554 108.531 71.8215H111.501C112.382 71.8215 113.27 71.7954 114.162 71.7437C115.058 71.6914 117.322 71.4287 118.236 71.3241C117.968 71.9965 117.849 71.9859 117.704 72.8294C116.803 72.8108 115.025 72.7983 114.063 72.789C112.051 72.7703 110.038 72.7703 108.025 72.789C106.958 72.7968 105.891 72.8097 104.824 72.8276ZM1.76416 72.8188C1.87933 71.5022 1.96151 70.2035 2.02065 68.918C2.07606 67.6349 2.10345 66.3618 2.10345 65.103C2.10345 64.0285 2.07606 63.0616 2.02065 62.2031C1.97073 61.4157 1.88515 60.6309 1.76416 59.8512C2.50722 59.9018 3.25184 59.9263 3.99662 59.9246C4.63535 59.9246 5.49198 59.9128 6.56463 59.8866C7.63791 59.863 8.40302 59.8505 8.86869 59.8505C11.1485 59.8505 12.8847 60.135 14.0751 60.7065C15.2666 61.278 15.8624 62.1079 15.8624 63.1936C15.8624 64.3603 15.1091 65.2848 13.6057 65.9627C12.0991 66.6438 10.0397 66.9825 7.42064 66.9825C6.84416 66.9825 6.38658 66.9806 6.04792 66.9781C5.70863 66.9756 5.3849 66.9731 5.07736 66.9731V68.5569C5.07699 69.2485 5.09007 69.9401 5.11658 70.6312C5.14086 71.3384 5.18071 72.0662 5.23176 72.8182C4.97338 72.7883 4.71403 72.7676 4.45419 72.756C4.13755 72.7408 3.82057 72.7335 3.50356 72.7342C3.13688 72.7342 2.81315 72.7416 2.53301 72.7578C2.25784 72.7734 2.00135 72.7946 1.76416 72.8188ZM5.07799 66.2055C5.19254 66.213 5.31829 66.218 5.46459 66.2198C5.60715 66.2223 5.82006 66.2242 6.09585 66.2242C8.20318 66.2242 9.79255 65.9733 10.8733 65.4728C11.9497 64.9722 12.4907 64.2333 12.4907 63.2515C12.4907 62.4167 12.0449 61.7674 11.1572 61.3048C10.2694 60.8429 9.02308 60.61 7.42188 60.61C7.19341 60.61 6.89334 60.615 6.51856 60.6244C6.14379 60.6337 5.71423 60.6505 5.233 60.6742C5.18354 61.1409 5.14514 61.6088 5.11783 62.0774C5.09274 62.4683 5.07966 62.8598 5.07861 63.2515V66.2055H5.07799ZM26.9774 81.5489H27.6472C27.9784 81.5489 28.2125 81.5103 28.3482 81.4318C28.4839 81.3546 28.5531 81.2257 28.5531 81.0427C28.5531 80.8597 28.4846 80.7289 28.3482 80.6517C28.2119 80.5746 27.9778 80.5347 27.6472 80.5347H26.9774V81.5489ZM26.066 83.5746V79.975H27.7805C28.3457 79.975 28.7666 80.0641 29.0436 80.2402C29.3213 80.4164 29.4595 80.6847 29.4595 81.044C29.4595 81.3945 29.3238 81.6621 29.0536 81.8458C28.7828 82.0282 28.3868 82.1191 27.8664 82.1191H26.9774V83.5746H26.066ZM43.6872 82.2137H44.9087L44.2961 80.6038L43.6872 82.2137ZM42.3076 83.5746L43.7551 79.975H44.8831L46.3268 83.5746H45.4241L45.1278 82.7865H43.4706L43.1649 83.5746H42.3076ZM60.7033 81.5439H61.4902C61.781 81.5439 61.9939 81.504 62.1296 81.4237C62.2659 81.3428 62.335 81.2158 62.335 81.044C62.335 80.8734 62.2659 80.7464 62.1296 80.6667C61.9933 80.587 61.7803 80.5465 61.4902 80.5465H60.7033V81.5439ZM59.8206 83.5746V79.975H61.4448C62.053 79.975 62.505 80.0641 62.8019 80.2402C63.0977 80.4164 63.2471 80.6872 63.2471 81.0508C63.2471 81.2849 63.1705 81.4797 63.0186 81.636C62.8654 81.7923 62.6451 81.9006 62.3606 81.9604L63.4233 83.5752H62.4527L61.5288 82.1147H60.7033V83.5752L59.8206 83.5746ZM77.2469 83.5746V79.975H78.1552V83.5746H77.2469ZM91.8905 82.7622L92.7086 82.4889C92.8349 82.6813 92.9763 82.8207 93.1319 82.9091C93.2875 82.9969 93.4724 83.0405 93.6853 83.0405C93.9263 83.0405 94.1155 83 94.2556 82.9172C94.3944 82.8357 94.4648 82.7236 94.4648 82.5841C94.4648 82.4727 94.4137 82.3793 94.3104 82.3046C94.207 82.2293 94.0221 82.1558 93.7526 82.0811C93.7006 82.0657 93.6483 82.0514 93.5957 82.0382C93.1251 81.9087 92.797 81.7991 92.6133 81.7095C92.4297 81.6223 92.2896 81.5115 92.1937 81.3758C92.0978 81.2401 92.048 81.0869 92.048 80.917C92.048 80.6262 92.1925 80.3903 92.4807 80.2091C92.7714 80.028 93.1481 79.9371 93.615 79.9371C94.0221 79.9371 94.3627 80.0031 94.6341 80.1344C94.9068 80.267 95.106 80.4625 95.2324 80.7227L94.4144 80.9468C94.3281 80.8 94.2043 80.6788 94.0558 80.5957C93.9194 80.5223 93.7495 80.4855 93.5478 80.4855C93.3523 80.4855 93.1985 80.5198 93.0858 80.5883C92.9732 80.6567 92.9171 80.7501 92.9171 80.8672C92.9171 81.0496 93.1917 81.2214 93.7439 81.3845C93.9138 81.4349 94.0464 81.4754 94.1454 81.5053C94.6073 81.6516 94.9199 81.8016 95.088 81.9554C95.2548 82.1079 95.337 82.3077 95.337 82.5549C95.337 82.8867 95.1925 83.1475 94.903 83.3381C94.6123 83.5279 94.2139 83.6232 93.7065 83.6232C93.2664 83.6232 92.8928 83.551 92.5865 83.4047C92.291 83.2717 92.0467 83.0462 91.8905 82.7622Z" fill="black"/>
</svg>
