<svg width="121" height="120" viewBox="0 0 121 120" fill="none" xmlns="http://www.w3.org/2000/svg">
<path fill-rule="evenodd" clip-rule="evenodd" d="M35.1664 24.4607L31.423 22.7001L33.8453 27.7639L30.9822 33.929L34.9466 31.7271L39.7888 38.1107L38.9085 30.1862L43.5322 27.7639L38.9085 25.7823L39.569 18.9561L35.1664 24.4607ZM49.3405 85.1735C31.2823 80.289 18.1396 63.8219 18.1396 44.2197C18.1396 20.7739 37.1486 1.7644 60.5956 1.7644C84.0433 1.7644 103.05 20.7739 103.05 44.2197C103.05 55.5364 98.6221 65.8184 91.4055 73.4291C91.4055 73.4291 88.4497 69.5954 87.5682 68.2763C86.6866 66.9546 85.3674 66.7902 85.5872 64.9724C85.8524 62.7767 87.5682 60.5685 87.5682 60.5685L88.0083 62.3291C88.0083 62.3291 100.37 49.3358 99.0174 40.5336C98.1347 34.8093 94.6135 34.1488 94.6135 34.1488C94.6135 34.1488 95.4938 28.8646 87.3471 24.9008C79.2005 20.9383 73.036 21.5988 73.036 21.5988L76.5596 24.2409C76.5596 24.2409 72.3207 23.4839 70.1735 24.0205L68.4129 24.4613L70.6965 25.5632C70.6965 25.5632 66.0466 25.773 62.9084 28.2053C60.458 30.1047 60.2663 31.2882 60.2663 31.2882H62.0281C62.0281 31.2882 60.486 33.9302 60.0465 36.5717C59.6064 39.2138 59.7987 39.9298 59.7987 39.9298C59.7987 39.9298 59.7987 41.168 57.5694 42.8196C55.9383 44.028 54.3502 44.3063 53.854 44.9662C53.1063 45.9635 55.4228 47.5809 55.4228 47.5809C55.4228 47.5809 55.2579 48.7643 54.184 50.0854C53.6934 50.6893 55.4228 51.7364 56.0006 51.9848L54.5973 53.1402C54.5973 53.1402 54.1024 53.6358 54.9267 54.2129C55.7534 54.7912 55.4222 56.0301 55.0929 57.3505C54.7623 58.6722 54.1024 60.7366 58.5599 61.2303C63.0192 61.7264 63.267 62.5519 63.6791 63.1297C64.0925 63.7099 66.6505 70.9738 65.3301 72.1311C63.5147 73.718 60.3236 73.2486 54.1834 77.414C49.5603 80.5498 49.3405 85.1735 49.3405 85.1735Z" fill="#080808"/>
<path fill-rule="evenodd" clip-rule="evenodd" d="M63.5148 38.1941C63.5148 38.1941 64.9996 40.4241 65.5779 40.8362C66.1557 41.2489 66.3206 41.8267 65.9073 41.9101C65.4939 41.9916 62.6034 41.9101 62.6034 41.9101L62.7702 41.4145C62.7702 41.4145 62.5225 40.7546 62.7702 40.0935C63.018 39.433 63.6785 39.1852 63.6785 39.1852L63.5148 38.1941ZM13.3449 101.464H19.7546C24.6454 101.464 25.657 106.092 25.657 109.147C25.657 112.606 24.4231 117.593 19.632 117.593H13.3442L13.3449 101.464ZM16.3169 114.808H19.269C21.735 114.808 22.5636 112.045 22.5636 109.394C22.5636 104.631 20.521 104.25 19.2273 104.25H16.3163L16.3169 114.808ZM31.0844 117.594H27.8901L33.0666 101.465H36.5634L41.6795 117.594H38.3838L37.4531 114.27H32.096L31.0844 117.594ZM32.9047 111.484H36.6045L34.8041 105.103H34.7649L32.9047 111.484ZM54.5744 101.464H57.4051V117.594H54.3714L48.4485 106.092H48.4074V117.594H45.5773V101.464H48.7716L54.5333 112.697H54.5744V101.464ZM69.4651 100.91C71.583 100.91 77.1561 101.849 77.1561 109.572C77.1561 117.295 71.5837 118.236 69.4651 118.236C67.3485 118.236 61.7754 117.295 61.7754 109.572C61.776 101.849 67.3485 100.91 69.4651 100.91ZM69.4651 115.325C71.2705 115.325 73.8118 114.179 73.8118 109.572C73.8118 104.967 71.2705 103.821 69.4651 103.821C67.661 103.821 65.1185 104.967 65.1185 109.572C65.1185 114.179 67.661 115.325 69.4651 115.325ZM90.6791 101.464H93.5098V117.594H90.4774L84.5538 106.092H84.5146V117.594H81.6827V101.464H84.877L90.638 112.697H90.6791V101.464ZM107.46 104.317H101.769V107.708H106.835V110.564H101.769V114.741H107.805V117.594H98.7965V101.464H107.46V104.317Z" fill="#080808"/>
</svg>
