<svg width="120" height="51" viewBox="0 0 120 51" fill="none" xmlns="http://www.w3.org/2000/svg">
<g clip-path="url(#clip0_4638_778)">
<path d="M113.845 48.9925L96.0661 0.0428983L96.054 0.010498H95.7031L92.042 10.0695L85.3769 28.3821L85.3613 28.3676C83.0513 26.3293 79.7922 25.0551 75.6877 24.5806L74.4359 24.4514L75.6778 24.2921C82.4465 23.0758 86.9964 18.8009 86.9964 13.6504C86.9964 6.58764 80.3536 1.65787 70.8382 1.65787H51.0398V2.01548H56.7926V38.5102L42.8212 0.0427783L42.8086 0.010498H42.4577L38.7965 10.0695L24.6756 48.8665L24.5887 48.8766C24.3474 48.9064 24.1087 48.93 23.8726 48.9479C23.5174 48.9757 23.1642 48.9924 22.81 48.9924H8.54196L35.6635 2.01536L35.8651 1.66231H2.69436V16.1944H3.04632C3.10872 9.11606 7.23096 2.01536 16.3387 2.01536H27.3265L0 49.3444H36.8141V35.4216H36.4621C36.4141 41.5911 32.9168 47.451 25.3117 48.7741L25.0699 48.8154L30.8618 32.8955H47.0868L52.9332 48.9925H47.166V49.3445H69.8022V48.9925H64.0103V24.7109H70.6933C77.4943 24.7109 81.3949 27.7493 81.3949 33.0445V37.3517C81.3949 37.8263 81.4272 38.5202 81.4628 39.1005V39.1216L77.8708 48.9903H73.1782V49.3422H82.8918V48.9903H78.2496L81.5208 40.0039C81.5275 40.0907 81.5309 40.1431 81.5309 40.1431L81.6211 40.9528L81.708 41.4885C82.2538 44.8022 83.5212 47.2381 85.4738 48.7284L85.7545 48.9323C87.2381 49.9637 89.0815 50.4861 91.2367 50.4861C94.0915 50.4861 95.995 49.7743 97.5666 48.0992L97.3606 47.9053C95.9125 49.2419 94.6974 49.7833 93.1748 49.7833C90.5807 49.7833 89.223 46.6367 89.223 43.5336V37.4987C89.2368 36.0013 89.0023 34.512 88.529 33.0913L88.4645 32.9042V32.8975H100.332L106.178 48.9947H100.411V49.3467H120V48.9947L113.845 48.9925ZM30.991 32.5434L38.9838 10.5842L46.9588 32.5434H30.991ZM64.0138 24.3578V2.01536H69.115C75.9294 2.01536 79.527 6.06635 79.527 13.7263C79.527 21.8728 77.4619 24.3578 70.6933 24.3578H64.0138ZM88.3262 32.5434L88.2917 32.4565C87.7643 31.172 86.9965 30.0001 86.0294 29.0036L85.6954 28.6694L85.6597 28.636L92.2246 10.5842L100.2 32.5434H88.3262Z" fill="#101213"/>
</g>
<defs>
<clipPath id="clip0_4638_778">
<rect width="120" height="50.4965" fill="white"/>
</clipPath>
</defs>
</svg>
