<svg width="120" height="23" viewBox="0 0 120 23" fill="none" xmlns="http://www.w3.org/2000/svg">
<g clip-path="url(#clip0_4638_791)">
<path d="M28.7142 20.0373C27.3471 20.0373 26.733 19.7164 26.733 18.0923V4.57742C26.733 2.96145 27.2481 2.7593 28.6152 2.7593H29.4773V1.08977H20.5498V2.7593H21.511C22.7891 2.7593 23.3835 3.19622 23.3835 4.57742V18.0923C23.3835 19.4707 22.6405 20.0373 21.3624 20.0373H20.5007V21.704H29.5369V20.0373H28.7142ZM58.9744 20.0373C57.6069 20.0373 56.9928 19.7164 56.9928 18.0923V4.57742C56.9928 2.96145 57.5082 2.7593 58.8753 2.7593H59.7471V1.08977H50.8196V2.7593H51.7711C53.0493 2.7593 53.634 3.19622 53.634 4.57742V18.0923C53.634 19.4707 52.8906 20.0373 51.6326 20.0373H50.7604V21.704H59.7967V20.0373H58.9744ZM31.4295 1.08977V6.52158H32.975V5.39004C32.975 4.02252 33.4703 2.7593 35.3231 2.7593H38.4741V18.0923C38.4741 19.4707 37.6518 20.0373 36.3733 20.0373H35.4419V21.704H44.855V20.0373H43.9236C42.6552 20.0373 41.8329 19.4707 41.8329 18.0923V2.7593H44.9738C46.8266 2.7593 47.3223 4.02252 47.3223 5.39004V6.52158H48.8678V1.08937L31.4295 1.08977ZM76.7102 16.1091V16.4735C76.7102 18.1857 76.2346 20.0373 72.5787 20.0373H66.2372L78.0379 2.7581V1.09018H62.4524V6.67138H64.0281V5.98803C64.0281 4.2291 64.8403 2.7585 67.2282 2.7585C68.675 2.7585 73.8471 2.77581 73.8471 2.77581L62.0859 20.0381V21.7036H78.2565V16.1091H76.7102ZM95.8039 16.0821V16.6326C95.8039 18.4708 94.9019 20.0373 92.6231 20.0373H86.4999V11.961H90.1857C91.672 11.961 92.009 13.2142 92.009 14.1009V14.959H93.6238V7.23152H92.009V7.9193C92.009 8.80118 91.672 10.0555 90.1857 10.0555H86.4999V2.7589H92.3456C95.2691 2.7589 95.338 5.20038 95.338 6.10601V6.55098H96.8936V1.08937H80.4955V2.7589H80.8619C82.2789 2.7589 83.0122 2.93125 83.0122 4.20977V18.3339C83.0122 19.819 82.0313 20.0373 81.1196 20.0373H80.5945V21.7036H97.2802V16.0821H95.8039ZM112.658 1.08977V2.7593H113.124C114.749 2.7593 115.333 3.31219 115.333 4.71232V16.1474L105.019 1.09018H99.6085V2.75971H100.114C101.115 2.75971 101.898 3.16682 101.898 4.75299V18.2405C101.898 19.6068 100.916 20.0377 100.163 20.0377H99.4699V21.7044H106.495V20.0377H105.831C105.078 20.0377 103.949 19.8456 103.949 18.2405V5.64172L114.966 21.7036H117.375V4.71232C117.375 3.31219 117.949 2.7593 119.574 2.7593H120V1.08977H112.658ZM11.464 20.6014C7.36188 20.6014 4.11181 16.6926 4.11181 11.4025C4.11181 5.6687 6.4502 1.95796 11.0678 1.95796C14.8921 1.95796 16.4082 3.92306 17.0026 6.3734H18.4591C18.2811 4.9185 18.0234 2.38601 18.0431 1.82306C16.765 1.55407 14.3867 0.329102 10.8298 0.329102C4.53826 0.329102 0 4.6334 0 11.4029C0 18.019 5.24134 22.2311 10.7702 22.2311C13.3268 22.2311 15.8634 21.6335 18.0036 20.0373C18.1027 19.5074 18.4591 17.9594 18.8259 16.7123H17.2305C16.0417 19.5359 13.8419 20.6014 11.464 20.6014Z" fill="black"/>
</g>
<defs>
<clipPath id="clip0_4638_791">
<rect width="120" height="22.56" fill="white"/>
</clipPath>
</defs>
</svg>
