<svg width="120" height="80" viewBox="0 0 120 80" fill="none" xmlns="http://www.w3.org/2000/svg">
<g clip-path="url(#clip0_4638_793)">
<path d="M8.58357 79.4445C8.53257 79.4386 8.35968 79.4207 8.19938 79.4046C6.73607 79.2576 5.17402 78.6592 3.94611 77.7752C2.1051 76.4498 0.807766 74.5199 0.266635 72.3016C-0.0209281 71.1228 -0.0780804 69.8022 0.10583 68.5873C0.59895 65.3299 2.75147 62.5397 5.73746 61.2874C6.48266 60.9748 7.22223 60.7772 8.09339 60.6578C8.57631 60.5916 9.7524 60.5913 10.2396 60.6572C11.2727 60.797 12.1484 61.0575 13.0482 61.4929C14.0382 61.9718 14.7233 62.465 15.5526 63.2958C16.2776 64.022 16.7253 64.6264 17.2443 65.5799L17.3547 65.7828L16.9634 66.0722C16.4244 66.4709 15.16 67.3731 14.7482 67.6528L14.408 67.8839L14.268 67.5797C14.095 67.2037 13.9718 66.9809 13.7724 66.683C12.9754 65.4927 11.7044 64.6426 10.3191 64.373C9.58603 64.2304 8.68357 64.2463 7.96091 64.4145C7.20206 64.5912 6.378 64.9875 5.74848 65.4786C5.49473 65.6765 5.02771 66.1396 4.82223 66.3972C3.7135 67.7865 3.30511 69.5565 3.68536 71.3244C3.81702 71.9365 4.15778 72.7362 4.51328 73.2673C5.45416 74.673 6.89635 75.5736 8.52989 75.7755C8.81867 75.8112 9.5143 75.8112 9.80309 75.7755C11.2498 75.5967 12.5865 74.8451 13.4999 73.6969C13.7688 73.3587 13.9563 73.066 14.1701 72.6503C14.2638 72.4681 14.3483 72.3191 14.3578 72.3191C14.3674 72.3191 15.0334 72.7891 15.8379 73.3636L17.3006 74.4081L17.1524 74.6884C16.8448 75.2701 16.3156 76.0014 15.8228 76.5258C14.9831 77.4193 14.1653 78.0264 13.1011 78.5463C12.1821 78.9953 11.2082 79.2817 10.1733 79.4073C9.94129 79.4354 8.74854 79.4633 8.58357 79.4445ZM21.0898 69.9344V60.78H24.6403V67.3511H33.9139V60.78H37.4644V79.0889H33.9139V71.034H24.6403V79.0889H21.0898V69.9344ZM41.0515 77.466C41.4472 76.5734 43.2731 72.4539 45.109 68.3116L48.447 60.78L50.9377 60.7803L53.4283 60.7806L57.4634 69.8221C59.6827 74.795 61.5212 78.9143 61.5491 78.9763L61.5998 79.0889H57.3485L56.5277 77.274L55.7069 75.4592L50.9562 75.4657L46.2053 75.4722L45.3938 77.2805L44.5822 79.0889H40.3318L41.0515 77.466ZM54.2053 71.7655C54.1903 71.7009 50.9648 64.4909 50.951 64.4911C50.9411 64.4913 47.8777 71.6406 47.8288 71.7777C47.8234 71.7929 49.0483 71.8024 51.0169 71.8024C53.7363 71.8024 54.2126 71.7969 54.2053 71.7655ZM64.464 69.9344V60.78L66.9613 60.7806L69.4585 60.7811L73.3667 66.2702L77.2749 71.7593L77.2816 66.2697L77.2883 60.78H80.8652V79.0894L79.4299 79.0825L77.9947 79.0756L73.0377 72.1943C70.3114 68.4095 68.0718 65.3124 68.0609 65.3119C68.0499 65.3113 68.041 68.4109 68.041 72.1999V79.0889H64.464V69.9344ZM87.3302 69.9344V60.78H100.128V64.463H90.9072V68.1195H99.439V71.8024H90.9072V75.4589H101.453V79.0889H87.3302V69.9344ZM106.46 69.9344V60.78H110.037V75.4589H120V79.0889H106.46V69.9344ZM45.1625 56.1236C41.3407 55.9468 37.085 54.7864 33.6541 52.9857C31.0202 51.6032 28.9327 50.0562 26.7458 47.866C25.033 46.1505 23.7693 44.5704 22.6996 42.8064L22.2314 42.0342L22.8957 41.6818C24.1901 40.9953 30.0911 37.9736 30.1374 37.9736C30.1633 37.9736 30.4071 38.3055 30.6792 38.711C33.7544 43.2945 38.5653 46.2762 44.1952 47.0877C45.1794 47.2296 48.1389 47.2069 49.2107 47.0494C50.4032 46.874 51.8337 46.5488 52.7422 46.2464C52.8013 46.2268 52.6884 46.0433 52.4284 45.7369C50.4161 43.3648 48.5816 40.109 47.5496 37.078C45.6827 31.5952 45.5498 25.7099 47.168 20.1802C48.1729 16.7463 49.9023 13.4133 52.0924 10.6896C52.4187 10.2838 52.6857 9.92574 52.6857 9.89397C52.6857 9.78589 50.9761 9.33082 49.8555 9.14063C48.1244 8.84681 45.4142 8.81038 43.8496 9.0599C41.217 9.47976 38.545 10.4657 36.457 11.7877C34.1302 13.2608 32.1898 15.154 30.6415 17.4619L29.9578 18.4809L29.0875 18.024C28.6089 17.7728 26.8308 16.8513 25.1363 15.9764C23.4418 15.1016 22.0501 14.3811 22.0437 14.3754C22.0167 14.3516 23.0776 12.6643 23.5142 12.0365C24.8401 10.1302 27.1944 7.60549 28.9337 6.22478C33.482 2.61441 38.5384 0.581092 44.231 0.0732922C45.287 -0.0209282 47.9054 -0.0217496 48.9241 0.0717819C52.5381 0.403567 55.6361 1.27988 58.8367 2.87555L60.3663 3.63817L60.8787 3.34658C61.7062 2.87571 63.1764 2.19633 64.293 1.76878C67.4258 0.569274 70.5808 -0.00169199 74.0668 3.7659e-06C76.501 0.00119609 78.5318 0.240377 80.7364 0.785536C85.717 2.01713 89.9643 4.37916 93.6239 7.95241C95.6079 9.8896 97.1627 11.8675 98.418 14.0512L98.6083 14.3821L95.5119 15.9795C93.8089 16.8581 92.0274 17.7805 91.5531 18.0292L90.6906 18.4815L90.0387 17.498C86.8219 12.6455 81.5601 9.48648 75.8008 8.94986C74.0958 8.79099 71.564 8.93727 70.025 9.2836C69.233 9.46184 67.9472 9.82921 67.9475 9.87717C67.9477 9.90224 68.1581 10.1807 68.415 10.496C71.7154 14.5456 73.7762 19.482 74.4421 24.9334C74.601 26.2345 74.6222 29.5564 74.4798 30.8445C73.8783 36.2841 71.8215 41.3039 68.5385 45.3451C67.7942 46.2613 67.826 46.1979 68.0647 46.2901C68.1774 46.3337 68.7049 46.4796 69.2369 46.6144C71.9407 47.2994 74.8513 47.3963 77.5841 46.892C82.5546 45.9747 87.0312 43.0351 89.9104 38.7977C90.1782 38.4036 90.42 38.0547 90.4478 38.0224C90.4755 37.9901 91.1392 38.285 91.9226 38.6777C93.4745 39.4556 98.3357 41.9711 98.3878 42.0233C98.4747 42.1101 96.9254 44.4098 95.9753 45.6044C95.0758 46.7353 92.718 49.0903 91.5916 49.983C87.5208 53.209 82.9525 55.1815 77.9206 55.8857C72.143 56.6944 66.0243 55.6114 61.0459 52.8992L60.3423 52.5159L59.4696 52.9776C55.1457 55.2654 50.186 56.3559 45.1625 56.1236ZM61.3039 40.2307C63.7135 37.248 65.2169 33.6299 65.5874 29.9223C65.7118 28.6779 65.6379 26.1431 65.4442 25.01C64.9113 21.892 63.771 19.2196 61.9315 16.7775C61.585 16.3176 61.0806 15.7028 60.8105 15.4114L60.3193 14.8814L59.8636 15.3755C59.2629 16.0269 58.2618 17.3558 57.7573 18.1716C55.1954 22.3143 54.3589 27.4037 55.4438 32.2477C56.1265 35.2959 57.6962 38.3666 59.8116 40.7921L60.2987 41.3507L60.5119 41.1489C60.6291 41.0379 60.9855 40.6247 61.3039 40.2307Z" fill="black"/>
</g>
<defs>
<clipPath id="clip0_4638_793">
<rect width="120" height="79.4506" fill="white"/>
</clipPath>
</defs>
</svg>
